<svg width="400" height="400" viewBox="0 0 400 400" fill="none" xmlns="http://www.w3.org/2000/svg">
<rect x="99" y="97" width="202" height="45" fill="#0B1C3D"/>
<path d="M200.021 209.389C200.908 208.985 202.157 208.895 203.135 208.937C203.441 208.95 203.397 209.372 203.614 209.397C204.038 209.446 204.344 209.162 204.769 209.238C204.91 209.264 204.92 209.914 205.065 209.928C205.849 210.003 206.528 209.644 207.306 209.555C211.14 209.114 214.787 208.094 218.438 206.908C219.638 206.519 221.33 206.41 222.423 205.634C222.551 205.543 222.237 205.079 222.245 205.025C222.368 204.201 222.696 205.278 223.03 205.287C224.354 205.318 225.564 204.785 226.509 204.064C226.906 203.758 225.967 203.005 226.687 203.328C226.737 203.35 226.894 203.929 227.043 203.923C227.38 203.908 227.846 203.546 228.076 203.476C228.522 203.344 228.586 203.303 228.967 203.105C229.49 202.838 230.243 202.756 230.723 202.33C230.825 202.238 230.375 201.802 230.508 201.608C230.638 201.418 231.164 201.174 231.401 201.2C231.639 201.226 231.806 201.675 231.89 201.752C232.598 202.399 232.529 200.967 232.584 200.898C233.636 199.647 235.128 199.562 236.333 198.769C237.264 198.155 238.106 197.293 238.978 196.717C240.022 196.03 241.049 195.682 241.996 194.893C242.095 194.811 241.547 194.339 241.667 194.238C242.94 193.165 244.259 192.206 245.821 191.514C245.978 191.445 246.216 192.057 246.397 192.015C247.508 191.75 249.567 191.569 248.202 189.155C248.782 188.775 249.465 188.293 250.286 188.269C250.815 188.252 250.999 189.009 251.156 188.462C251.192 188.339 250.679 188.009 250.764 187.857C251.122 187.217 251.804 186.822 252.078 186.118C252.132 185.974 251.73 185.625 251.691 185.529C251.378 184.749 252.672 185.261 252.824 185.239C253.964 185.068 254.237 184.389 254.835 183.779C254.974 183.636 254.293 183.32 254.408 183.165C255.014 182.369 255.748 181.653 256.628 181.134C256.826 181.019 257.149 181.571 257.267 181.536C257.783 181.377 256.985 180.546 257.457 180.379C257.556 180.343 257.916 180.722 257.97 180.747C258.822 181.132 258.009 180.128 258.031 180.06C258.291 179.164 259.663 179.592 260.052 178.822C260.097 178.729 259.445 178.486 259.602 178.253C260.645 176.691 261.971 175.273 263.499 174.081C263.735 173.896 264.012 174.355 264.072 174.376C265.017 174.698 264.1 173.789 264.116 173.686C264.27 172.885 265.546 172.934 264.589 171.65C266.82 169.381 267.769 166.318 270.522 164.318C270.556 164.292 271.061 164.672 271.127 164.618C271.917 163.965 270.98 163.63 270.256 162.493C270.073 162.209 271.565 162.503 271.678 162.516C272.094 162.571 272.829 163.172 272.92 163.163C273.652 163.071 270.921 161.621 271.199 161.118C271.213 161.104 271.673 161.447 271.746 161.431C271.975 161.385 271.85 161.144 272.093 161.109C272.653 161.03 274.034 161.637 273.515 160.757C273.446 160.645 271.856 159.901 272.174 159.484C272.302 159.318 272.703 158.495 272.921 158.32C273.14 158.145 273.56 158.561 273.59 158.556C274.573 158.283 274.727 158.659 275.873 158.851C277.015 159.037 274.628 157.93 274.431 157.671C274.234 157.413 275.014 157.237 275.262 157.22C275.509 157.203 275.761 157.504 275.919 157.458C276.961 157.146 274.896 156.586 274.629 156.184C273.995 155.237 275.942 155.691 276.345 155.294C276.453 155.188 276.002 155.101 276.02 154.968C276.093 154.447 276.773 154.432 276.51 153.678C276.467 153.553 275.596 152.646 276.501 152.736C276.632 152.749 277.023 153.061 277.211 152.911C277.493 152.689 277.827 152.206 277.818 151.827C277.812 151.547 276.962 151.486 277.319 151.297C277.477 151.213 277.799 151.642 278.062 151.468C278.326 151.292 278.581 150.656 278.668 150.411C278.756 150.167 278.142 150.057 278.113 150.021C277.948 149.813 277.872 149.244 277.89 149.204C278.677 147.161 280.377 145.654 280.815 143.514C280.85 143.347 280.21 143.229 280.209 143.201C280.158 142.57 281.596 143.587 282.271 143.404C281.032 143.01 281.335 142.868 281.34 142.438C281.341 142.23 280.832 142.159 280.789 142.124C280.169 141.593 281.165 141.74 281.373 141.759C282.137 141.829 281.38 141.338 281.891 141.381C282.4 141.423 282.988 141.951 283.109 141.579C282.707 141.321 281.464 141.19 281.377 140.845C281.049 139.545 282.61 137.886 282.976 137.061C283.343 136.241 283.344 135.945 283.661 135.49C284.231 134.672 283.266 134.74 283.04 134.062C282.813 133.383 284.857 134.29 285.339 134.346C285.82 134.401 285.375 134.174 285.656 134.148C285.937 134.123 286.184 134.431 286.348 134.224C286.513 134.015 285.885 133.135 285.429 132.916C284.464 132.449 283.317 132.427 283.866 131.924C283.898 131.895 284.426 132.17 284.522 132.051C285.257 131.107 285.594 129.977 286.263 128.99C286.356 128.854 286.949 129.152 287.01 129.075C287.648 128.267 286.504 128.318 285.451 127.525C286.991 128.034 288.022 128.001 288.203 127.31C288.312 126.895 287.608 126.798 287.189 126.413C287.063 126.297 287.605 126.119 287.295 125.988C286.281 125.558 285.033 125.552 285.672 124.953C285.702 124.927 286.257 125.163 286.318 125.063C286.712 124.416 285.625 124.075 285.66 123.296C285.688 122.686 286.593 121.792 286.843 121.146C288.621 121.536 288.346 120.813 287.171 120.297C287.312 119.866 287.338 119.376 287.591 118.984C287.678 118.849 288.176 119.046 288.235 119.038C289.167 118.924 288.006 118.5 287.978 118.396C287.718 117.281 288.779 116.617 288.06 115.478C288.034 115.437 286.799 115.164 287.754 115.057C287.819 115.05 288.33 115.476 288.454 115.016C288.578 114.557 289.392 113.784 288.916 113.047C288.801 112.868 287.849 112.319 288.689 112.127C288.803 112.102 289.154 112.202 289.363 112.172C290.028 112.072 288.781 111.775 289.889 111.705C290.996 111.634 291.872 111.269 291.226 110.492C291.207 110.467 290.227 110.169 290.271 109.964C290.343 109.636 290.616 109.193 290.654 108.847C290.673 108.682 290.035 108.706 290.028 108.676C289.822 107.52 290.471 106.837 290.848 105.655C290.919 105.438 290.135 104.716 290.853 104.364C291.638 103.974 294.661 104.767 294.036 103.609C293.787 103.138 289.939 102.242 292.025 101.658C291.656 100.084 292.793 98.7575 292.164 97.2224C292.136 97.1567 291.057 96.8719 291.081 96.7121C291.119 96.4733 291.635 96.3689 291.678 96.199C291.869 95.4879 291.461 94.8175 291.555 94.1428C291.59 93.8865 292.114 93.996 292.155 93.6899C292.194 93.3837 291.506 93.1595 291.854 92.7575C292.119 92.4413 293.549 92.1524 293.724 91.7234C292.322 91.6767 292.358 91.3823 291.996 90.8605C291.926 90.7603 291.436 90.8588 291.378 90.8111C291.13 90.6177 291.536 90.4482 291.265 90.2658C291.199 90.2214 290.721 90.214 290.64 90.1777C289.939 89.8698 291.019 89.3881 291.207 89.3033C291.92 88.981 291.298 88.832 291.578 88.5796C291.858 88.3194 292.209 88.7083 292.379 88.4036C292.73 87.7709 292.645 86.968 292.656 86.344C292.658 86.0948 292.022 86.2763 292.007 86.2408C291.836 85.7331 292.503 85.2028 291.222 84.961C294.502 84.5226 290.895 84.6589 291.528 83.8956C291.579 83.8354 293.131 83.7005 293.368 83.9216C293.605 84.1402 293.13 84.5191 293.495 84.8113C293.581 84.8794 295.05 85.2579 295.14 85.3148C295.841 85.7513 293.516 85.8657 293.389 85.8912C292.016 86.1856 293.595 86.6708 293.706 86.8089C294.211 87.4301 293.888 87.9739 294.243 88.51C294.473 88.8569 295.996 88.8842 295.949 89.1537C295.79 90.0483 293.662 90.3265 295.49 91.2067C295.88 91.397 297.549 91.2462 296.226 91.8835C296.142 91.9245 294.933 92.3862 295.682 92.6927C295.777 92.7313 296.262 92.7438 296.301 92.7926C296.556 93.1165 296.163 93.3018 296.337 93.6446C296.511 93.986 296.772 94.4032 296.591 94.7845C296.483 95.0146 295.567 95.2751 295.34 95.3763C294.689 95.6614 295.717 96.0514 294.936 96.2096C294.15 96.367 292.993 95.9239 292.465 96.4104C293.724 96.496 295.014 96.6087 296.278 96.7079C296.171 97.8683 295.696 98.9059 295.667 100.055C295.664 100.197 296.351 100.103 296.366 100.256C296.425 100.906 295.897 101.435 296.031 102.116C296.138 102.631 296.802 103.252 296.931 103.805C295.463 103.991 295.872 104.828 295.678 105.394C295.611 105.592 295.23 105.538 295.089 105.668C294.567 106.16 295.862 106.046 296.045 106.218C296.823 106.962 293.951 106.685 293.934 107.424C293.933 107.462 295.402 108.125 295.488 108.205C296.056 108.703 294.948 108.208 294.803 108.457C294.536 108.912 294.129 109.197 294.5 109.823C294.61 110.005 295.506 110.535 294.726 110.757C294.624 110.786 294.124 110.692 294.09 110.722C293.512 111.268 295.09 111.515 295.575 111.944C296.059 112.371 294.887 112.749 294.557 112.809C293.7 112.972 294.242 112.538 294.165 112.511C293.242 112.187 293.347 112.601 293.221 112.886C291.666 112.692 291.696 113.119 293.097 113.183C293.25 113.189 293.142 112.935 293.221 112.886C294.701 113.379 294.823 113.879 293.323 114.16C292.62 114.291 291.882 113.94 292.047 114.707C292.121 115.055 293.206 115.105 293.447 115.445C293.996 116.228 292.854 116.92 292.888 117.617C292.9 117.873 293.524 117.739 293.552 117.918C293.628 118.394 293.119 118.708 293.256 119.2C293.269 119.245 293.896 119.261 293.876 119.403C293.743 120.48 293.165 121.352 292.923 122.445C292.808 122.974 292.934 123.999 292.743 124.538C292.416 125.473 291.263 126.457 291.279 127.314C291.287 127.873 291.915 127.906 292.268 128.233C292.952 128.87 291.337 129.292 291.091 129.338C291.083 129.339 291.057 128.849 290.688 129.013C290.011 128.991 291.089 129.332 291.091 129.338C290.932 129.371 290.561 130.244 290.627 130.455C290.664 130.569 291.245 130.664 291.253 130.721C291.436 132.081 291.241 133.345 290.624 134.496C290.606 134.514 289.986 134.3 289.952 134.345C289.468 134.972 290.102 135.651 290.38 136.378C290.658 137.105 290.359 137.531 289.177 137.543C289.175 138.028 288.503 138.501 288.1 138.768C287.697 139.034 288.893 139.478 288.907 139.518C289.35 140.763 288.463 141.112 288.002 142.103C287.781 142.576 287.615 143.605 287.557 144.175C287.513 144.628 287.141 144.776 287.18 145.223C287.185 145.284 287.737 145.428 287.752 145.451C288.231 146.115 287.005 145.428 286.74 145.43C285.776 145.435 285.255 145.459 285.447 146.15C285.491 146.308 287.218 147.387 287.238 147.662C287.26 148.016 286.636 147.644 286.676 148.02C286.678 148.052 287.093 148.207 286.999 148.394C286.566 149.267 285.941 150.131 285.599 151.072C285.551 151.199 286.266 151.306 286.206 151.496C285.926 152.386 285.5 153.318 284.833 154.019C284.667 154.19 284.275 153.864 284.122 153.85C283.195 153.767 284.198 154.664 284.191 154.738C284.077 156.5 282.491 157.16 282.252 158.919C282.243 159.014 283.16 160.265 281.964 160.023C281.884 160.008 280.667 159.748 281.281 160.362C281.319 160.401 281.962 160.505 281.753 160.78C281.544 161.055 281.664 161.733 280.844 161.837C280.584 161.871 279.359 161.624 280.004 162.457C280.052 162.511 281.648 164.132 280.211 163.646C279.975 163.566 278.6 162.784 279.066 163.629C279.157 163.792 279.555 163.799 279.623 164.137C279.727 164.658 279.096 164.93 279.471 165.707C279.539 165.843 280.295 166.694 279.437 166.557C279.303 166.535 278.885 166.199 278.757 166.307C278.144 166.819 278.059 167.676 277.359 168.149C277.112 168.316 276.445 167.765 276.106 167.889C275.768 168.013 275.293 168.38 275.477 168.831C275.66 169.283 276.992 169.711 276.855 170.147C276.261 172.039 274.561 173.222 273.396 174.751C273.222 174.978 273.759 175.053 273.531 175.408C272.704 176.71 271.513 179.172 269.87 179.635C268.563 180.001 268.865 178.542 268.106 178.993C267.743 179.21 268.749 180.5 268.729 180.608C268.565 181.656 267.612 181.738 267.259 182.528C267.186 182.691 267.794 182.958 267.726 183.093C267.496 183.56 266.937 183.795 266.67 184.204C266.551 184.388 266.955 184.668 266.797 184.8C266.425 185.117 265.99 185.317 265.341 185.374C265.282 185.379 265 184.769 264.757 185.022C264.363 185.433 263.564 185.669 263.486 186.468C263.464 186.706 264.299 187.452 263.442 187.255C263.262 187.214 262.332 186.238 262.876 187.373C262.969 187.56 263.579 189.226 262.556 188.847C262.287 188.748 261.294 188.204 261.262 188.492C261.261 188.534 261.79 188.848 261.7 189.031C261.375 189.672 260.839 190.148 260.488 190.786C260.395 190.957 261.038 191.186 260.884 191.428C260.46 192.096 259.664 192.679 258.986 193.076C258.736 193.222 258.511 192.719 258.457 192.694C257.584 192.275 258.311 193.286 258.283 193.414C258.099 194.196 257.322 194.142 256.977 194.68C256.881 194.827 257.373 195.17 257.384 195.232C257.478 195.847 256.946 194.899 256.703 194.968C256.023 195.157 255.545 195.664 255.126 196.146C254.973 196.324 255.625 196.651 255.481 196.806C254.637 197.73 253.611 198.542 252.434 199.046C252.213 199.138 251.985 198.645 251.871 198.584C251.085 198.151 251.456 199.33 251.439 199.485C251.371 200.187 250.925 199.953 250.637 200.3C249.233 202.002 246.875 203.407 245.115 204.423C242.8 205.769 240.796 206.496 238.733 207.927C238.6 208.018 239.105 208.526 238.994 208.612C237.553 209.698 235.85 210.374 234.396 211.405C234.274 211.489 234.78 211.966 234.594 212.122C234.215 212.445 233.651 212.708 233.115 212.753C232.854 212.776 232.874 212.124 232.618 212.157C232.021 212.232 231.465 212.467 230.996 212.825C230.797 212.979 231.437 213.412 231.152 213.565C229.202 214.628 227.354 215.627 224.969 215.716C224.806 215.721 224.137 214.514 223.949 214.882C224.078 215.242 224.257 215.653 224.409 216.032C221.575 217.491 218.513 218.155 215.487 219.106C215.361 219.146 215.811 219.762 215.568 219.842C214.168 220.305 212.841 220.94 211.164 220.686C210.997 220.662 210.706 219.412 210.335 219.724C210.271 219.78 209.674 220.132 209.582 220.447C209.57 220.494 209.854 221.035 209.649 221.112C208.441 221.551 207.185 221.748 205.883 221.702C205.674 221.693 205.724 221.023 205.574 221.011C204.518 220.93 203.557 221.658 202.478 221.311C201.757 221.076 201.75 219.949 201.181 218.965C201.101 218.827 200.708 218.889 200.554 218.277C200.165 216.739 199.977 215.003 199.541 213.369C199.447 213.017 199.034 213.508 199.142 212.585C199.15 212.523 199.445 212.16 199.468 211.849C199.484 211.634 199.236 211.032 199.303 210.747C199.368 210.462 199.621 210.957 199.756 210.608C199.89 210.256 199.64 209.565 200.021 209.389ZM286.29 139.959C285.599 140.094 287.708 140.858 287.32 140.328C287.299 140.301 286.324 139.952 286.29 139.959ZM294.004 98.7984C292.986 99.1791 294.415 99.5915 295.2 99.3255C295.984 99.0567 294.312 98.681 294.004 98.7984ZM293.529 94.0766C292.729 94.5676 295.904 94.7816 295.283 94.1879C295.248 94.1535 293.575 94.0476 293.529 94.0766ZM202.644 218.315C202.632 218.287 202.35 218.323 202.351 218.353C202.365 219.081 202.931 219.008 202.644 218.315ZM292.843 89.4296C292.412 89.5877 292.905 90.0587 293.441 89.8617C293.874 89.7015 293.379 89.2306 292.843 89.4296ZM277.338 155.755C277.306 155.745 277.193 155.912 277.365 155.99C277.919 156.242 277.884 155.917 277.338 155.755ZM292.617 81.5717C292.56 82.7258 289.963 83.5329 290.201 82.2875C290.243 82.0616 291.062 82.7266 291.284 82.4306C291.689 81.8835 290.023 81.6348 290.874 81.0651C291.03 80.9586 292.626 81.5029 292.621 81.5735C292.619 81.5729 292.618 81.5723 292.617 81.5717ZM283.672 139.292C283.642 139.289 283.527 139.54 283.553 139.556C284.18 139.925 284.412 139.417 283.672 139.292ZM270.68 165.256C270.618 165.237 270.243 165.748 270.282 165.796C271.108 166.683 271.877 165.639 270.68 165.256ZM286.893 121.146C286.252 120.711 286.24 120.354 287.17 120.298C287.063 120.582 286.997 120.867 286.893 121.146Z" fill="#FF8C2A"/>
<path d="M200.021 209.389C200.908 208.985 202.157 208.895 203.135 208.937C203.441 208.95 203.397 209.372 203.614 209.397C204.038 209.446 204.344 209.162 204.769 209.238C204.91 209.264 204.92 209.914 205.065 209.928C205.849 210.003 206.528 209.644 207.306 209.555C211.14 209.114 214.787 208.094 218.438 206.908C219.638 206.519 221.33 206.41 222.423 205.634C222.551 205.543 222.237 205.079 222.245 205.025C222.368 204.201 222.696 205.278 223.03 205.287C224.354 205.318 225.564 204.785 226.509 204.064C226.906 203.758 225.967 203.005 226.687 203.328C226.737 203.35 226.894 203.929 227.043 203.923C227.38 203.908 227.846 203.546 228.076 203.476C228.522 203.344 228.586 203.303 228.967 203.105C229.49 202.838 230.243 202.756 230.723 202.33C230.825 202.238 230.375 201.802 230.508 201.608C230.638 201.418 231.164 201.174 231.401 201.2C231.639 201.226 231.806 201.675 231.89 201.752C232.598 202.399 232.529 200.967 232.584 200.898C233.636 199.647 235.128 199.562 236.333 198.769C237.264 198.155 238.106 197.293 238.978 196.717C240.022 196.03 241.049 195.682 241.996 194.893C242.095 194.811 241.547 194.339 241.667 194.238C242.94 193.165 244.259 192.206 245.821 191.514C245.978 191.445 246.216 192.057 246.397 192.015C247.508 191.75 249.567 191.569 248.202 189.155C248.782 188.775 249.465 188.293 250.286 188.269C250.815 188.252 250.999 189.009 251.156 188.462C251.192 188.339 250.679 188.009 250.764 187.857C251.122 187.217 251.804 186.822 252.078 186.118C252.132 185.974 251.73 185.625 251.691 185.529C251.378 184.749 252.672 185.261 252.824 185.239C253.964 185.068 254.237 184.389 254.835 183.779C254.974 183.636 254.293 183.32 254.408 183.165C255.014 182.369 255.748 181.653 256.628 181.134C256.826 181.019 257.149 181.571 257.267 181.536C257.783 181.377 256.985 180.546 257.457 180.379C257.556 180.343 257.916 180.722 257.97 180.747C258.822 181.132 258.009 180.128 258.031 180.06C258.291 179.164 259.663 179.592 260.052 178.822C260.097 178.729 259.445 178.486 259.602 178.253C260.645 176.691 261.971 175.273 263.499 174.081C263.735 173.896 264.012 174.355 264.072 174.376C265.017 174.698 264.1 173.789 264.116 173.686C264.27 172.885 265.546 172.934 264.589 171.65C266.82 169.381 267.769 166.318 270.522 164.318C270.556 164.292 271.061 164.672 271.127 164.618C271.917 163.965 270.98 163.63 270.256 162.493C270.073 162.209 271.565 162.503 271.678 162.516C272.094 162.571 272.829 163.172 272.92 163.163C273.652 163.071 270.921 161.621 271.199 161.118C271.213 161.104 271.673 161.447 271.746 161.431C271.975 161.385 271.85 161.144 272.093 161.109C272.653 161.03 274.034 161.637 273.515 160.757C273.446 160.645 271.856 159.901 272.174 159.484C272.302 159.318 272.703 158.495 272.921 158.32C273.14 158.145 273.56 158.561 273.59 158.556C274.573 158.283 274.727 158.659 275.873 158.851C277.015 159.037 274.628 157.93 274.431 157.671C274.234 157.413 275.014 157.237 275.262 157.22C275.509 157.203 275.761 157.504 275.919 157.458C276.961 157.146 274.896 156.586 274.629 156.184C273.995 155.237 275.942 155.691 276.345 155.294C276.453 155.188 276.002 155.101 276.02 154.968C276.093 154.447 276.773 154.432 276.51 153.678C276.467 153.553 275.596 152.646 276.501 152.736C276.632 152.749 277.023 153.061 277.211 152.911C277.493 152.689 277.827 152.206 277.818 151.827C277.812 151.547 276.962 151.486 277.319 151.297C277.477 151.213 277.799 151.642 278.062 151.468C278.326 151.292 278.581 150.656 278.668 150.411C278.756 150.167 278.142 150.057 278.113 150.021C277.948 149.813 277.872 149.244 277.89 149.204C278.677 147.161 280.377 145.654 280.815 143.514C280.85 143.347 280.21 143.229 280.209 143.201C280.158 142.57 281.596 143.587 282.271 143.404C281.032 143.01 281.335 142.868 281.34 142.438C281.341 142.23 280.832 142.159 280.789 142.124C280.169 141.593 281.165 141.74 281.373 141.759C282.137 141.829 281.38 141.338 281.891 141.381C282.4 141.423 282.988 141.951 283.109 141.579C282.707 141.321 281.464 141.19 281.377 140.845C281.049 139.545 282.61 137.886 282.976 137.061C283.343 136.241 283.344 135.945 283.661 135.49C284.231 134.672 283.266 134.74 283.04 134.062C282.813 133.383 284.857 134.29 285.339 134.346C285.82 134.401 285.375 134.174 285.656 134.148C285.937 134.123 286.184 134.431 286.348 134.224C286.513 134.015 285.885 133.135 285.429 132.916C284.464 132.449 283.317 132.427 283.866 131.924C283.898 131.895 284.426 132.17 284.522 132.051C285.257 131.107 285.594 129.977 286.263 128.99C286.356 128.854 286.949 129.152 287.01 129.075C287.648 128.267 286.504 128.318 285.451 127.525C286.991 128.034 288.022 128.001 288.203 127.31C288.312 126.895 287.608 126.798 287.189 126.413C287.063 126.297 287.605 126.119 287.295 125.988C286.281 125.558 285.033 125.552 285.672 124.953C285.702 124.927 286.257 125.163 286.318 125.063C286.712 124.416 285.625 124.075 285.66 123.296C285.688 122.686 286.593 121.792 286.843 121.146C288.621 121.536 288.346 120.813 287.171 120.297C287.312 119.866 287.338 119.376 287.591 118.984C287.678 118.849 288.176 119.046 288.235 119.038C289.167 118.924 288.006 118.5 287.978 118.396C287.718 117.281 288.779 116.617 288.06 115.478C288.034 115.437 286.799 115.164 287.754 115.057C287.819 115.05 288.33 115.476 288.454 115.016C288.578 114.557 289.392 113.784 288.916 113.047C288.801 112.868 287.849 112.319 288.689 112.127C288.803 112.102 289.154 112.202 289.363 112.172C290.028 112.072 288.781 111.775 289.889 111.705C290.996 111.634 291.872 111.269 291.226 110.492C291.207 110.467 290.227 110.169 290.271 109.964C290.343 109.636 290.616 109.193 290.654 108.847C290.673 108.682 290.035 108.706 290.028 108.676C289.822 107.52 290.471 106.837 290.848 105.655C290.919 105.438 290.135 104.716 290.853 104.364C291.638 103.974 294.661 104.767 294.036 103.609C293.787 103.138 289.939 102.242 292.025 101.658C291.656 100.084 292.793 98.7575 292.164 97.2224C292.136 97.1567 291.057 96.8719 291.081 96.7121C291.119 96.4733 291.635 96.3689 291.678 96.199C291.869 95.4879 291.461 94.8175 291.555 94.1428C291.59 93.8865 292.114 93.996 292.155 93.6899C292.194 93.3837 291.506 93.1595 291.854 92.7575C292.119 92.4413 293.549 92.1524 293.724 91.7234C292.322 91.6767 292.358 91.3823 291.996 90.8605C291.926 90.7603 291.436 90.8588 291.378 90.8111C291.13 90.6177 291.536 90.4482 291.265 90.2658C291.199 90.2214 290.721 90.214 290.64 90.1777C289.939 89.8698 291.019 89.3881 291.207 89.3033C291.92 88.981 291.298 88.832 291.578 88.5796C291.858 88.3194 292.209 88.7083 292.379 88.4036C292.73 87.7709 292.645 86.968 292.656 86.344C292.658 86.0948 292.022 86.2763 292.007 86.2408C291.836 85.7331 292.503 85.2028 291.222 84.961C294.502 84.5226 290.895 84.6589 291.528 83.8956C291.579 83.8354 293.131 83.7005 293.368 83.9216C293.605 84.1402 293.13 84.5191 293.495 84.8113C293.581 84.8794 295.05 85.2579 295.14 85.3148C295.841 85.7513 293.516 85.8657 293.389 85.8912C292.016 86.1856 293.595 86.6708 293.706 86.8089C294.211 87.4301 293.888 87.9739 294.243 88.51C294.473 88.8569 295.996 88.8842 295.949 89.1537C295.79 90.0483 293.662 90.3265 295.49 91.2067C295.88 91.397 297.549 91.2462 296.226 91.8835C296.142 91.9245 294.933 92.3862 295.682 92.6927C295.777 92.7313 296.262 92.7438 296.301 92.7926C296.556 93.1165 296.163 93.3018 296.337 93.6446C296.511 93.986 296.772 94.4032 296.591 94.7845C296.483 95.0146 295.567 95.2751 295.34 95.3763C294.689 95.6614 295.717 96.0514 294.936 96.2096C294.15 96.367 292.993 95.9239 292.465 96.4104C293.724 96.496 295.014 96.6087 296.278 96.7079C296.171 97.8683 295.696 98.9059 295.667 100.055C295.664 100.197 296.351 100.103 296.366 100.256C296.425 100.906 295.897 101.435 296.031 102.116C296.138 102.631 296.802 103.252 296.931 103.805C295.463 103.991 295.872 104.828 295.678 105.394C295.611 105.592 295.23 105.538 295.089 105.668C294.567 106.16 295.862 106.046 296.045 106.218C296.823 106.962 293.951 106.685 293.934 107.424C293.933 107.462 295.402 108.125 295.488 108.205C296.056 108.703 294.948 108.208 294.803 108.457C294.536 108.912 294.129 109.197 294.5 109.823C294.61 110.005 295.506 110.535 294.726 110.757C294.624 110.786 294.124 110.692 294.09 110.722C293.512 111.268 295.09 111.515 295.575 111.944C296.059 112.371 294.887 112.749 294.557 112.809C293.7 112.972 294.242 112.538 294.165 112.511C293.242 112.187 293.347 112.601 293.221 112.886C291.666 112.692 291.696 113.119 293.097 113.183C293.25 113.189 293.142 112.935 293.221 112.886C294.701 113.379 294.823 113.879 293.323 114.16C292.62 114.291 291.882 113.94 292.047 114.707C292.121 115.055 293.206 115.105 293.447 115.445C293.996 116.228 292.854 116.92 292.888 117.617C292.9 117.873 293.524 117.739 293.552 117.918C293.628 118.394 293.119 118.708 293.256 119.2C293.269 119.245 293.896 119.261 293.876 119.403C293.743 120.48 293.165 121.352 292.923 122.445C292.808 122.974 292.934 123.999 292.743 124.538C292.416 125.473 291.263 126.457 291.279 127.314C291.287 127.873 291.915 127.906 292.268 128.233C292.952 128.87 291.337 129.292 291.091 129.338C291.083 129.339 291.057 128.849 290.688 129.013C290.011 128.991 291.089 129.332 291.091 129.338C290.932 129.371 290.561 130.244 290.627 130.455C290.664 130.569 291.245 130.664 291.253 130.721C291.436 132.081 291.241 133.345 290.624 134.496C290.606 134.514 289.986 134.3 289.952 134.345C289.468 134.972 290.102 135.651 290.38 136.378C290.658 137.105 290.359 137.531 289.177 137.543C289.175 138.028 288.503 138.501 288.1 138.768C287.697 139.034 288.893 139.478 288.907 139.518C289.35 140.763 288.463 141.112 288.002 142.103C287.781 142.576 287.615 143.605 287.557 144.175C287.513 144.628 287.141 144.776 287.18 145.223C287.185 145.284 287.737 145.428 287.752 145.451C288.231 146.115 287.005 145.428 286.74 145.43C285.776 145.435 285.255 145.459 285.447 146.15C285.491 146.308 287.218 147.387 287.238 147.662C287.26 148.016 286.636 147.644 286.676 148.02C286.678 148.052 287.093 148.207 286.999 148.394C286.566 149.267 285.941 150.131 285.599 151.072C285.551 151.199 286.266 151.306 286.206 151.496C285.926 152.386 285.5 153.318 284.833 154.019C284.667 154.19 284.275 153.864 284.122 153.85C283.195 153.767 284.198 154.664 284.191 154.738C284.077 156.5 282.491 157.16 282.252 158.919C282.243 159.014 283.16 160.265 281.964 160.023C281.884 160.008 280.667 159.748 281.281 160.362C281.319 160.401 281.962 160.505 281.753 160.78C281.544 161.055 281.664 161.733 280.844 161.837C280.584 161.871 279.359 161.624 280.004 162.457C280.052 162.511 281.648 164.132 280.211 163.646C279.975 163.566 278.6 162.784 279.066 163.629C279.157 163.792 279.555 163.799 279.623 164.137C279.727 164.658 279.096 164.93 279.471 165.707C279.539 165.843 280.295 166.694 279.437 166.557C279.303 166.535 278.885 166.199 278.757 166.307C278.144 166.819 278.059 167.676 277.359 168.149C277.112 168.316 276.445 167.765 276.106 167.889C275.768 168.013 275.293 168.38 275.477 168.831C275.66 169.283 276.992 169.711 276.855 170.147C276.261 172.039 274.561 173.222 273.396 174.751C273.222 174.978 273.759 175.053 273.531 175.408C272.704 176.71 271.513 179.172 269.87 179.635C268.563 180.001 268.865 178.542 268.106 178.993C267.743 179.21 268.749 180.5 268.729 180.608C268.565 181.656 267.612 181.738 267.259 182.528C267.186 182.691 267.794 182.958 267.726 183.093C267.496 183.56 266.937 183.795 266.67 184.204C266.551 184.388 266.955 184.668 266.797 184.8C266.425 185.117 265.99 185.317 265.341 185.374C265.282 185.379 265 184.769 264.757 185.022C264.363 185.433 263.564 185.669 263.486 186.468C263.464 186.706 264.299 187.452 263.442 187.255C263.262 187.214 262.332 186.238 262.876 187.373C262.969 187.56 263.579 189.226 262.556 188.847C262.287 188.748 261.294 188.204 261.262 188.492C261.261 188.534 261.79 188.848 261.7 189.031C261.375 189.672 260.839 190.148 260.488 190.786C260.395 190.957 261.038 191.186 260.884 191.428C260.46 192.096 259.664 192.679 258.986 193.076C258.736 193.222 258.511 192.719 258.457 192.694C257.584 192.275 258.311 193.286 258.283 193.414C258.099 194.196 257.322 194.142 256.977 194.68C256.881 194.827 257.373 195.17 257.384 195.232C257.478 195.847 256.946 194.899 256.703 194.968C256.023 195.157 255.545 195.664 255.126 196.146C254.973 196.324 255.625 196.651 255.481 196.806C254.637 197.73 253.611 198.542 252.434 199.046C252.213 199.138 251.985 198.645 251.871 198.584C251.085 198.151 251.456 199.33 251.439 199.485C251.371 200.187 250.925 199.953 250.637 200.3C249.233 202.002 246.875 203.407 245.115 204.423C242.8 205.769 240.796 206.496 238.733 207.927C238.6 208.018 239.105 208.526 238.994 208.612C237.553 209.698 235.85 210.374 234.396 211.405C234.274 211.489 234.78 211.966 234.594 212.122C234.215 212.445 233.651 212.708 233.115 212.753C232.854 212.776 232.874 212.124 232.618 212.157C232.021 212.232 231.465 212.467 230.996 212.825C230.797 212.979 231.437 213.412 231.152 213.565C229.202 214.628 227.354 215.627 224.969 215.716C224.806 215.721 224.137 214.514 223.949 214.882C224.078 215.242 224.257 215.653 224.409 216.032C221.575 217.491 218.513 218.155 215.487 219.106C215.361 219.146 215.811 219.762 215.568 219.842C214.168 220.305 212.841 220.94 211.164 220.686C210.997 220.662 210.706 219.412 210.335 219.724C210.271 219.78 209.674 220.132 209.582 220.447C209.57 220.494 209.854 221.035 209.649 221.112C208.441 221.551 207.185 221.748 205.883 221.702C205.674 221.693 205.724 221.023 205.574 221.011C204.518 220.93 203.557 221.658 202.478 221.311C201.757 221.076 201.75 219.949 201.181 218.965C201.101 218.827 200.708 218.889 200.554 218.277C200.165 216.739 199.977 215.003 199.541 213.369C199.447 213.017 199.034 213.508 199.142 212.585C199.15 212.523 199.445 212.16 199.468 211.849C199.484 211.634 199.236 211.032 199.303 210.747C199.368 210.462 199.621 210.957 199.756 210.608C199.89 210.256 199.64 209.565 200.021 209.389ZM286.29 139.959C285.599 140.094 287.708 140.858 287.32 140.328C287.299 140.301 286.324 139.952 286.29 139.959ZM294.004 98.7984C292.986 99.1791 294.415 99.5915 295.2 99.3255C295.984 99.0567 294.312 98.681 294.004 98.7984ZM293.529 94.0766C292.729 94.5676 295.904 94.7816 295.283 94.1879C295.248 94.1535 293.575 94.0476 293.529 94.0766ZM202.644 218.315C202.632 218.287 202.35 218.323 202.351 218.353C202.365 219.081 202.931 219.008 202.644 218.315ZM292.843 89.4296C292.412 89.5877 292.905 90.0587 293.441 89.8617C293.874 89.7015 293.379 89.2306 292.843 89.4296ZM277.338 155.755C277.306 155.745 277.193 155.912 277.365 155.99C277.919 156.242 277.884 155.917 277.338 155.755ZM292.617 81.5717C292.56 82.7258 289.963 83.5329 290.201 82.2875C290.243 82.0616 291.062 82.7266 291.284 82.4306C291.689 81.8835 290.023 81.6348 290.874 81.0651C291.03 80.9586 292.626 81.5029 292.621 81.5735C292.619 81.5729 292.618 81.5723 292.617 81.5717ZM283.672 139.292C283.642 139.289 283.527 139.54 283.553 139.556C284.18 139.925 284.412 139.417 283.672 139.292ZM270.68 165.256C270.618 165.237 270.243 165.748 270.282 165.796C271.108 166.683 271.877 165.639 270.68 165.256ZM286.893 121.146C286.252 120.711 286.24 120.354 287.17 120.298C287.063 120.582 286.997 120.867 286.893 121.146Z" fill="white" fill-opacity="0.3"/>
<rect x="176" y="126" width="47" height="199" fill="#0B1C3D"/>
<circle cx="293" cy="66" r="5" fill="#FF8C2A"/>
<circle opacity="0.4" cx="293" cy="66" r="8" fill="#FF8C2A"/>
</svg>
